<mxfile host="app.diagrams.net" agent="Mozilla/5.0 (Macintosh; Intel Mac OS X 10_15_7) AppleWebKit/537.36 (KHTML, like Gecko) Chrome/130.0.0.0 Safari/537.36" version="24.8.2" pages="2">
  <diagram name="Page-1" id="Kd4tKtFgKm6YESnLNpmT">
    <mxGraphModel dx="760" dy="507" grid="1" gridSize="10" guides="1" tooltips="1" connect="1" arrows="1" fold="1" page="1" pageScale="1" pageWidth="850" pageHeight="1100" math="0" shadow="0">
      <root>
        <mxCell id="0" />
        <mxCell id="1" parent="0" />
        <mxCell id="-ulHJqYeQtgRdLdinVCH-1" value="" style="rounded=0;whiteSpace=wrap;html=1;" vertex="1" parent="1">
          <mxGeometry y="10" width="850" height="1090" as="geometry" />
        </mxCell>
        <mxCell id="-ulHJqYeQtgRdLdinVCH-2" value="" style="rounded=1;whiteSpace=wrap;html=1;" vertex="1" parent="1">
          <mxGeometry x="300" y="220" width="220" height="150" as="geometry" />
        </mxCell>
        <mxCell id="-ulHJqYeQtgRdLdinVCH-3" value="" style="rounded=1;whiteSpace=wrap;html=1;" vertex="1" parent="1">
          <mxGeometry x="300" y="500" width="220" height="150" as="geometry" />
        </mxCell>
        <mxCell id="-ulHJqYeQtgRdLdinVCH-4" value="" style="rounded=1;whiteSpace=wrap;html=1;" vertex="1" parent="1">
          <mxGeometry x="590" y="220" width="220" height="150" as="geometry" />
        </mxCell>
        <mxCell id="-ulHJqYeQtgRdLdinVCH-5" value="" style="rounded=1;whiteSpace=wrap;html=1;" vertex="1" parent="1">
          <mxGeometry x="590" y="500" width="220" height="150" as="geometry" />
        </mxCell>
        <mxCell id="-ulHJqYeQtgRdLdinVCH-6" value="" style="rounded=1;whiteSpace=wrap;html=1;" vertex="1" parent="1">
          <mxGeometry x="300" y="770" width="220" height="150" as="geometry" />
        </mxCell>
        <mxCell id="-ulHJqYeQtgRdLdinVCH-7" value="" style="rounded=1;whiteSpace=wrap;html=1;" vertex="1" parent="1">
          <mxGeometry x="590" y="770" width="220" height="150" as="geometry" />
        </mxCell>
        <mxCell id="-ulHJqYeQtgRdLdinVCH-8" value="&lt;span style=&quot;color: rgba(0, 0, 0, 0); font-family: monospace; font-size: 0px; text-align: start; text-wrap-mode: nowrap;&quot;&gt;%3CmxGraphModel%3E%3Croot%3E%3CmxCell%20id%3D%220%22%2F%3E%3CmxCell%20id%3D%221%22%20parent%3D%220%22%2F%3E%3CmxCell%20id%3D%222%22%20value%3D%22Renewable%22%20style%3D%22rounded%3D1%3BfillColor%3D%23F0F2F5%3BstrokeColor%3D%23D8DCE3%3Balign%3Dleft%3BverticalAlign%3Dmiddle%3BfontStyle%3D0%3BfontSize%3D12%3BlabelPosition%3Dright%3BverticalLabelPosition%3Dmiddle%3BspacingLeft%3D10%3Bhtml%3D1%3Bshadow%3D0%3Bdashed%3D0%22%20vertex%3D%221%22%20parent%3D%221%22%3E%3CmxGeometry%20x%3D%2238%22%20y%3D%22340%22%20width%3D%2212%22%20height%3D%2212%22%20as%3D%22geometry%22%2F%3E%3C%2FmxCell%3E%3C%2Froot%3E%3C%2FmxGraphModel%3E&lt;/span&gt;" style="rounded=0;whiteSpace=wrap;html=1;" vertex="1" parent="1">
          <mxGeometry y="95" width="200" height="910" as="geometry" />
        </mxCell>
        <mxCell id="-ulHJqYeQtgRdLdinVCH-9" value="" style="rounded=0;whiteSpace=wrap;html=1;" vertex="1" parent="1">
          <mxGeometry y="10" width="850" height="90" as="geometry" />
        </mxCell>
        <mxCell id="-ulHJqYeQtgRdLdinVCH-10" value="" style="rounded=0;whiteSpace=wrap;html=1;" vertex="1" parent="1">
          <mxGeometry y="1010" width="850" height="90" as="geometry" />
        </mxCell>
        <mxCell id="-ulHJqYeQtgRdLdinVCH-12" value="&lt;font style=&quot;font-size: 17px;&quot;&gt;Username&lt;/font&gt;" style="text;html=1;align=center;verticalAlign=middle;whiteSpace=wrap;rounded=0;" vertex="1" parent="1">
          <mxGeometry x="720" y="35" width="120" height="40" as="geometry" />
        </mxCell>
        <mxCell id="-ulHJqYeQtgRdLdinVCH-14" value="&lt;font style=&quot;font-size: 21px;&quot;&gt;All rights reserved&lt;/font&gt;" style="text;html=1;align=center;verticalAlign=middle;whiteSpace=wrap;rounded=0;" vertex="1" parent="1">
          <mxGeometry x="268" y="1035" width="315" height="40" as="geometry" />
        </mxCell>
        <mxCell id="-ulHJqYeQtgRdLdinVCH-15" value="&lt;font style=&quot;font-size: 27px;&quot;&gt;Filter&lt;/font&gt;" style="text;html=1;align=center;verticalAlign=middle;whiteSpace=wrap;rounded=0;" vertex="1" parent="1">
          <mxGeometry y="120" width="110" height="40" as="geometry" />
        </mxCell>
        <mxCell id="-ulHJqYeQtgRdLdinVCH-16" value="&lt;font style=&quot;font-size: 16px;&quot;&gt;Major&lt;/font&gt;" style="text;html=1;align=center;verticalAlign=middle;whiteSpace=wrap;rounded=0;" vertex="1" parent="1">
          <mxGeometry x="25" y="180" width="60" height="30" as="geometry" />
        </mxCell>
        <mxCell id="-ulHJqYeQtgRdLdinVCH-20" value="CIE" style="rounded=1;fillColor=#F0F2F5;strokeColor=#D8DCE3;align=left;verticalAlign=middle;fontStyle=0;fontSize=12;labelPosition=right;verticalLabelPosition=middle;spacingLeft=10;html=1;shadow=0;dashed=0" vertex="1" parent="1">
          <mxGeometry x="38" y="220" width="12" height="12" as="geometry" />
        </mxCell>
        <mxCell id="-ulHJqYeQtgRdLdinVCH-23" value="Naneng" style="rounded=1;fillColor=#F0F2F5;strokeColor=#D8DCE3;align=left;verticalAlign=middle;fontStyle=0;fontSize=12;labelPosition=right;verticalLabelPosition=middle;spacingLeft=10;html=1;shadow=0;dashed=0" vertex="1" parent="1">
          <mxGeometry x="38" y="250" width="12" height="12" as="geometry" />
        </mxCell>
        <mxCell id="-ulHJqYeQtgRdLdinVCH-24" value="Aerospace" style="rounded=1;fillColor=#F0F2F5;strokeColor=#D8DCE3;align=left;verticalAlign=middle;fontStyle=0;fontSize=12;labelPosition=right;verticalLabelPosition=middle;spacingLeft=10;html=1;shadow=0;dashed=0" vertex="1" parent="1">
          <mxGeometry x="38" y="280" width="12" height="12" as="geometry" />
        </mxCell>
        <mxCell id="-ulHJqYeQtgRdLdinVCH-25" value="Environmental" style="rounded=1;fillColor=#F0F2F5;strokeColor=#D8DCE3;align=left;verticalAlign=middle;fontStyle=0;fontSize=12;labelPosition=right;verticalLabelPosition=middle;spacingLeft=10;html=1;shadow=0;dashed=0" vertex="1" parent="1">
          <mxGeometry x="38" y="310" width="12" height="12" as="geometry" />
        </mxCell>
        <mxCell id="-ulHJqYeQtgRdLdinVCH-29" value="Renewable" style="rounded=1;fillColor=#F0F2F5;strokeColor=#D8DCE3;align=left;verticalAlign=middle;fontStyle=0;fontSize=12;labelPosition=right;verticalLabelPosition=middle;spacingLeft=10;html=1;shadow=0;dashed=0" vertex="1" parent="1">
          <mxGeometry x="38" y="340" width="12" height="12" as="geometry" />
        </mxCell>
        <mxCell id="-ulHJqYeQtgRdLdinVCH-31" value="&lt;font style=&quot;font-size: 16px;&quot;&gt;Instructor&lt;/font&gt;" style="text;html=1;align=center;verticalAlign=middle;whiteSpace=wrap;rounded=0;" vertex="1" parent="1">
          <mxGeometry x="25" y="430" width="60" height="30" as="geometry" />
        </mxCell>
        <mxCell id="-ulHJqYeQtgRdLdinVCH-32" value="Renewable" style="rounded=1;fillColor=#F0F2F5;strokeColor=#D8DCE3;align=left;verticalAlign=middle;fontStyle=0;fontSize=12;labelPosition=right;verticalLabelPosition=middle;spacingLeft=10;html=1;shadow=0;dashed=0" vertex="1" parent="1">
          <mxGeometry x="38" y="470" width="12" height="12" as="geometry" />
        </mxCell>
        <mxCell id="-ulHJqYeQtgRdLdinVCH-33" value="Renewable" style="rounded=1;fillColor=#F0F2F5;strokeColor=#D8DCE3;align=left;verticalAlign=middle;fontStyle=0;fontSize=12;labelPosition=right;verticalLabelPosition=middle;spacingLeft=10;html=1;shadow=0;dashed=0" vertex="1" parent="1">
          <mxGeometry x="38" y="500" width="12" height="12" as="geometry" />
        </mxCell>
        <mxCell id="-ulHJqYeQtgRdLdinVCH-34" value="Renewable" style="rounded=1;fillColor=#F0F2F5;strokeColor=#D8DCE3;align=left;verticalAlign=middle;fontStyle=0;fontSize=12;labelPosition=right;verticalLabelPosition=middle;spacingLeft=10;html=1;shadow=0;dashed=0" vertex="1" parent="1">
          <mxGeometry x="38" y="530" width="12" height="12" as="geometry" />
        </mxCell>
        <mxCell id="-ulHJqYeQtgRdLdinVCH-35" value="Renewable" style="rounded=1;fillColor=#F0F2F5;strokeColor=#D8DCE3;align=left;verticalAlign=middle;fontStyle=0;fontSize=12;labelPosition=right;verticalLabelPosition=middle;spacingLeft=10;html=1;shadow=0;dashed=0" vertex="1" parent="1">
          <mxGeometry x="38" y="560" width="12" height="12" as="geometry" />
        </mxCell>
        <mxCell id="-ulHJqYeQtgRdLdinVCH-39" value="&lt;font style=&quot;font-size: 27px;&quot;&gt;Apply&lt;/font&gt;" style="text;html=1;align=center;verticalAlign=middle;whiteSpace=wrap;rounded=1;fillColor=#dae8fc;strokeColor=#6c8ebf;" vertex="1" parent="1">
          <mxGeometry x="27.5" y="910" width="145" height="50" as="geometry" />
        </mxCell>
        <mxCell id="-ulHJqYeQtgRdLdinVCH-40" value="View files" style="text;html=1;align=center;verticalAlign=middle;whiteSpace=wrap;rounded=1;fillColor=#e1d5e7;strokeColor=#9673a6;shadow=0;glass=0;" vertex="1" parent="1">
          <mxGeometry x="370" y="332" width="80" height="20" as="geometry" />
        </mxCell>
        <mxCell id="-ulHJqYeQtgRdLdinVCH-43" value="Project name" style="text;html=1;align=center;verticalAlign=middle;whiteSpace=wrap;rounded=0;" vertex="1" parent="1">
          <mxGeometry x="340" y="220" width="130" height="20" as="geometry" />
        </mxCell>
        <mxCell id="-ulHJqYeQtgRdLdinVCH-44" value="Students:&amp;nbsp;" style="text;html=1;align=center;verticalAlign=middle;whiteSpace=wrap;rounded=0;" vertex="1" parent="1">
          <mxGeometry x="300" y="246" width="70" height="20" as="geometry" />
        </mxCell>
        <mxCell id="-ulHJqYeQtgRdLdinVCH-46" value="Instructor:&amp;nbsp;" style="text;html=1;align=center;verticalAlign=middle;whiteSpace=wrap;rounded=0;" vertex="1" parent="1">
          <mxGeometry x="300" y="266" width="70" height="20" as="geometry" />
        </mxCell>
      </root>
    </mxGraphModel>
  </diagram>
  <diagram id="JPwjgz6T3qXX3334RoJX" name="Page-2">
    <mxGraphModel dx="1710" dy="1140" grid="1" gridSize="10" guides="1" tooltips="1" connect="1" arrows="1" fold="1" page="1" pageScale="1" pageWidth="850" pageHeight="1100" math="0" shadow="0">
      <root>
        <mxCell id="0" />
        <mxCell id="1" parent="0" />
        <mxCell id="vXAJPOtxJReM_HwIDtdp-2" value="" style="rounded=0;whiteSpace=wrap;html=1;" vertex="1" parent="1">
          <mxGeometry x="310" y="580" width="120" height="60" as="geometry" />
        </mxCell>
        <mxCell id="vXAJPOtxJReM_HwIDtdp-3" value="" style="rounded=0;whiteSpace=wrap;html=1;" vertex="1" parent="1">
          <mxGeometry width="850" height="1100" as="geometry" />
        </mxCell>
        <mxCell id="fdcoAhilnYhjfdqLfi2W-1" value="" style="whiteSpace=wrap;html=1;aspect=fixed;" vertex="1" parent="1">
          <mxGeometry x="248" y="373" width="355" height="355" as="geometry" />
        </mxCell>
        <mxCell id="fdcoAhilnYhjfdqLfi2W-2" value="&lt;font style=&quot;font-size: 28px;&quot;&gt;Login&lt;/font&gt;" style="text;html=1;align=center;verticalAlign=middle;whiteSpace=wrap;rounded=0;" vertex="1" parent="1">
          <mxGeometry x="377" y="420" width="96.25" height="40" as="geometry" />
        </mxCell>
        <mxCell id="fdcoAhilnYhjfdqLfi2W-3" value="" style="rounded=1;whiteSpace=wrap;html=1;" vertex="1" parent="1">
          <mxGeometry x="333.01" y="490" width="184.99" height="30" as="geometry" />
        </mxCell>
        <mxCell id="fdcoAhilnYhjfdqLfi2W-4" value="Usename" style="text;html=1;align=center;verticalAlign=middle;whiteSpace=wrap;rounded=0;" vertex="1" parent="1">
          <mxGeometry x="317.5" y="490" width="105" height="30" as="geometry" />
        </mxCell>
        <mxCell id="fdcoAhilnYhjfdqLfi2W-8" value="" style="rounded=1;whiteSpace=wrap;html=1;" vertex="1" parent="1">
          <mxGeometry x="333.01" y="550" width="184.99" height="30" as="geometry" />
        </mxCell>
        <mxCell id="fdcoAhilnYhjfdqLfi2W-9" value="Password" style="text;html=1;align=center;verticalAlign=middle;whiteSpace=wrap;rounded=0;" vertex="1" parent="1">
          <mxGeometry x="302.5" y="555" width="135" height="20" as="geometry" />
        </mxCell>
        <mxCell id="fdcoAhilnYhjfdqLfi2W-10" value="Login" style="text;html=1;align=center;verticalAlign=middle;whiteSpace=wrap;rounded=0;fillColor=#dae8fc;strokeColor=#6c8ebf;" vertex="1" parent="1">
          <mxGeometry x="378" y="620" width="94.99" height="30" as="geometry" />
        </mxCell>
        <mxCell id="fdcoAhilnYhjfdqLfi2W-11" value="Don&#39;t have an account? signup" style="text;html=1;align=center;verticalAlign=middle;whiteSpace=wrap;rounded=0;" vertex="1" parent="1">
          <mxGeometry x="323" y="680" width="205" height="30" as="geometry" />
        </mxCell>
      </root>
    </mxGraphModel>
  </diagram>
</mxfile>
